<svg width="34" height="40" viewBox="0 0 34 40" fill="none" xmlns="http://www.w3.org/2000/svg">
<path d="M0.150391 29.0832C0.150391 22.2492 6.01242 17.9179 17.0132 17.0416L23.834 16.4517V14.9855C23.834 10.5025 21.3445 7.71327 17.0889 7.71327C13.2033 7.71327 10.4195 10.1401 10.0494 14.4714L1.25215 14.2439C1.68949 6.09535 8.29163 0.365234 17.3748 0.365234C26.4665 0.365234 32.8415 6.39029 32.8415 15.2046V27.4653C32.8415 31.4343 33.2116 35.6897 33.7246 38.4115H24.8517C24.4816 36.7262 24.2629 34.5943 24.2629 31.6534C22.5052 36.0605 17.7365 39.2205 11.8745 39.2205C4.91907 39.2205 0.150391 35.2515 0.150391 29.0832ZM14.9611 32.9005C20.0157 32.9005 23.977 29.0074 23.977 23.429V21.4487L17.6692 22.106C12.2445 22.6958 9.24201 24.457 9.24201 28.0552C9.24201 31.2826 11.7315 32.9005 14.9611 32.9005Z" fill="#101820"/>
</svg>
