<svg width="35" height="40" viewBox="0 0 35 40" fill="none" xmlns="http://www.w3.org/2000/svg">
<path d="M0.673828 29.0826C0.673828 22.2486 6.53586 17.9173 17.5366 17.0409L24.3574 16.4511V14.9848C24.3574 10.5019 21.868 7.71265 17.6123 7.71265C13.7267 7.71265 10.9429 10.1395 10.5728 14.4708L1.77559 14.2517C2.21292 6.10316 8.81507 0.373047 17.8983 0.373047C26.9899 0.373047 33.365 6.3981 33.365 15.2124V27.4731C33.365 31.4421 33.735 35.6975 34.248 38.4193H25.3751C25.005 36.734 24.7864 34.6021 24.7864 31.6612C23.0286 36.0683 18.2599 39.2283 12.3979 39.2283C5.4425 39.2199 0.673828 35.2509 0.673828 29.0826ZM15.4845 32.8999C20.5391 32.8999 24.5004 29.0068 24.5004 23.4283V21.4481L18.1926 22.1054C12.7679 22.6952 9.76544 24.4564 9.76544 28.0546C9.76544 31.282 12.2549 32.8999 15.4845 32.8999Z" fill="#0062F5"/>
</svg>
