<svg width="39" height="53" viewBox="0 0 39 53" fill="none" xmlns="http://www.w3.org/2000/svg">
<path d="M29.7894 15.9685C28.6877 16.6173 27.4009 16.9881 26.03 16.9881C23.4312 16.9881 21.1436 15.6651 19.8063 13.6512C15.3236 14.0051 11.6987 16.0696 9.1756 19.5414V0H0.0839844V51.4109H9.1756V46.3465C11.9594 50.1638 16.0637 52.2957 21.194 52.2957C31.093 52.2957 38.1241 44.2904 38.1241 32.9819C38.1241 25.2884 34.9198 19.1453 29.7894 15.9685ZM18.7803 44.796C12.8425 44.796 8.66257 39.9507 8.66257 32.9735C8.66257 25.9204 12.8425 21.075 18.7803 21.075C24.6423 21.075 28.9652 26.072 28.9652 32.9735C28.9652 39.8075 24.6423 44.796 18.7803 44.796Z" fill="#0062F5"/>
</svg>
