<svg width="24" height="25" viewBox="0 0 24 25" fill="none" xmlns="http://www.w3.org/2000/svg">
<path d="M7 11.3105H5C2.58 11.3105 1.25 9.98055 1.25 7.56055V5.56055C1.25 3.14055 2.58 1.81055 5 1.81055H7C9.42 1.81055 10.75 3.14055 10.75 5.56055V7.56055C10.75 9.98055 9.42 11.3105 7 11.3105ZM5 3.31055C3.42 3.31055 2.75 3.98055 2.75 5.56055V7.56055C2.75 9.14055 3.42 9.81055 5 9.81055H7C8.58 9.81055 9.25 9.14055 9.25 7.56055V5.56055C9.25 3.98055 8.58 3.31055 7 3.31055H5Z" fill="#0066FF"/>
<path d="M19 11.3105H17C14.58 11.3105 13.25 9.98055 13.25 7.56055V5.56055C13.25 3.14055 14.58 1.81055 17 1.81055H19C21.42 1.81055 22.75 3.14055 22.75 5.56055V7.56055C22.75 9.98055 21.42 11.3105 19 11.3105ZM17 3.31055C15.42 3.31055 14.75 3.98055 14.75 5.56055V7.56055C14.75 9.14055 15.42 9.81055 17 9.81055H19C20.58 9.81055 21.25 9.14055 21.25 7.56055V5.56055C21.25 3.98055 20.58 3.31055 19 3.31055H17Z" fill="#0066FF"/>
<path d="M19 23.3105H17C14.58 23.3105 13.25 21.9805 13.25 19.5605V17.5605C13.25 15.1405 14.58 13.8105 17 13.8105H19C21.42 13.8105 22.75 15.1405 22.75 17.5605V19.5605C22.75 21.9805 21.42 23.3105 19 23.3105ZM17 15.3105C15.42 15.3105 14.75 15.9805 14.75 17.5605V19.5605C14.75 21.1405 15.42 21.8105 17 21.8105H19C20.58 21.8105 21.25 21.1405 21.25 19.5605V17.5605C21.25 15.9805 20.58 15.3105 19 15.3105H17Z" fill="#0066FF"/>
<path d="M7 23.3105H5C2.58 23.3105 1.25 21.9805 1.25 19.5605V17.5605C1.25 15.1405 2.58 13.8105 5 13.8105H7C9.42 13.8105 10.75 15.1405 10.75 17.5605V19.5605C10.75 21.9805 9.42 23.3105 7 23.3105ZM5 15.3105C3.42 15.3105 2.75 15.9805 2.75 17.5605V19.5605C2.75 21.1405 3.42 21.8105 5 21.8105H7C8.58 21.8105 9.25 21.1405 9.25 19.5605V17.5605C9.25 15.9805 8.58 15.3105 7 15.3105H5Z" fill="#0066FF"/>
</svg>
