<svg width="25" height="24" viewBox="0 0 25 24" fill="none" xmlns="http://www.w3.org/2000/svg">
<path d="M12.0835 22.75C6.1535 22.75 1.3335 17.93 1.3335 12C1.3335 6.07 6.1535 1.25 12.0835 1.25C18.0135 1.25 22.8335 6.07 22.8335 12C22.8335 17.93 18.0135 22.75 12.0835 22.75ZM12.0835 2.75C6.9835 2.75 2.8335 6.9 2.8335 12C2.8335 17.1 6.9835 21.25 12.0835 21.25C17.1835 21.25 21.3335 17.1 21.3335 12C21.3335 6.9 17.1835 2.75 12.0835 2.75Z" fill="#0066FF"/>
<path d="M15.0837 16C14.5237 16 14.0737 15.55 14.0737 15C14.0737 14.45 14.5237 14 15.0737 14C15.6237 14 16.0737 14.45 16.0737 15C16.0737 15.55 15.6337 16 15.0837 16Z" fill="#0066FF"/>
<path d="M9.09351 10C8.53351 10 8.0835 9.55 8.0835 9C8.0835 8.45 8.5335 8 9.0835 8C9.6335 8 10.0835 8.45 10.0835 9C10.0835 9.55 9.64351 10 9.09351 10Z" fill="#0066FF"/>
<path d="M9.08347 15.7495C8.89347 15.7495 8.70344 15.6795 8.55344 15.5295C8.26344 15.2395 8.26344 14.7595 8.55344 14.4695L14.5534 8.46945C14.8434 8.17945 15.3235 8.17945 15.6135 8.46945C15.9035 8.75945 15.9035 9.23951 15.6135 9.52951L9.6135 15.5295C9.4635 15.6795 9.27347 15.7495 9.08347 15.7495Z" fill="#0066FF"/>
</svg>
