<svg width="37" height="40" viewBox="0 0 37 40" fill="none" xmlns="http://www.w3.org/2000/svg">
<path d="M37.0057 19.3845C37.0057 8.07596 29.4531 0.146484 18.8308 0.146484C16.7535 0.146484 14.7854 0.449845 12.9604 1.01443C12.9436 5.14349 9.60465 8.48043 5.48356 8.48043C4.75186 8.48043 4.04539 8.37089 3.37256 8.16865C1.22792 11.3792 0 15.3903 0 19.8985C0 31.4262 7.91416 39.7264 18.9822 39.7264C27.914 39.7349 34.6592 34.3671 36.1226 27.5415L28.3514 26.3618C27.1823 30.0358 23.364 32.6059 19.0411 32.6059C13.3977 32.6059 9.36916 28.3505 9.14208 22.5445H36.7786C36.93 21.5165 37.0057 20.3451 37.0057 19.3845ZM9.22618 16.3004C9.66352 10.7893 13.6248 6.97207 18.8308 6.97207C24.1798 6.97207 27.9897 10.941 27.9897 16.3004H9.22618Z" fill="#101820"/>
</svg>
