<svg width="25" height="24" viewBox="0 0 25 24" fill="none" xmlns="http://www.w3.org/2000/svg">
<path d="M16.8867 22.75H8.88672C5.46672 22.75 4.13672 21.42 4.13672 18V10C4.13672 9.59 4.47672 9.25 4.88672 9.25H20.8867C21.2967 9.25 21.6367 9.59 21.6367 10V18C21.6367 21.42 20.3067 22.75 16.8867 22.75ZM5.63672 10.75V18C5.63672 20.58 6.30672 21.25 8.88672 21.25H16.8867C19.4667 21.25 20.1367 20.58 20.1367 18V10.75H5.63672Z" fill="#0066FF"/>
<path d="M20.4167 10.75H5.41675C3.66675 10.75 2.66675 9.75 2.66675 8V7C2.66675 5.25 3.66675 4.25 5.41675 4.25H20.4167C22.1167 4.25 23.1667 5.3 23.1667 7V8C23.1667 9.7 22.1167 10.75 20.4167 10.75ZM5.41675 5.75C4.50675 5.75 4.16675 6.09 4.16675 7V8C4.16675 8.91 4.50675 9.25 5.41675 9.25H20.4167C21.2967 9.25 21.6667 8.88 21.6667 8V7C21.6667 6.12 21.2967 5.75 20.4167 5.75H5.41675Z" fill="#0066FF"/>
<path d="M12.5568 5.74988H7.03684C6.82684 5.74988 6.62684 5.65988 6.48684 5.50988C5.87684 4.83988 5.89684 3.80988 6.53684 3.16988L7.95684 1.74988C8.61684 1.08988 9.70684 1.08988 10.3668 1.74988L13.0868 4.46988C13.2968 4.67988 13.3668 5.00988 13.2468 5.28988C13.1368 5.56988 12.8668 5.74988 12.5568 5.74988ZM7.58684 4.24988H10.7568L9.30684 2.80988C9.22684 2.72988 9.09684 2.72988 9.01684 2.80988L7.59684 4.22988C7.59684 4.23988 7.58684 4.23988 7.58684 4.24988Z" fill="#0066FF"/>
<path d="M18.7868 5.74988H13.2668C12.9668 5.74988 12.6868 5.56988 12.5768 5.28988C12.4568 5.00988 12.5268 4.68988 12.7368 4.46988L15.4568 1.74988C16.1168 1.08988 17.2068 1.08988 17.8668 1.74988L19.2868 3.16988C19.9268 3.80988 19.9568 4.83988 19.3368 5.50988C19.1968 5.65988 18.9968 5.74988 18.7868 5.74988ZM15.0868 4.24988H18.2568C18.2468 4.23988 18.2468 4.23988 18.2368 4.22988L16.8168 2.80988C16.7368 2.72988 16.6068 2.72988 16.5268 2.80988L15.0868 4.24988Z" fill="#0066FF"/>
<path d="M10.8567 16.9C10.5767 16.9 10.2867 16.83 10.0267 16.69C9.45669 16.38 9.10669 15.79 9.10669 15.15V10C9.10669 9.59 9.44669 9.25 9.85669 9.25H15.8967C16.3067 9.25 16.6467 9.59 16.6467 10V15.13C16.6467 15.78 16.2967 16.37 15.7267 16.67C15.1567 16.98 14.4667 16.94 13.9267 16.58L13.0367 15.98C12.9567 15.92 12.8467 15.92 12.7567 15.98L11.8167 16.6C11.5267 16.8 11.1867 16.9 10.8567 16.9ZM10.6067 10.75V15.14C10.6067 15.27 10.6867 15.33 10.7367 15.36C10.7867 15.39 10.8867 15.42 10.9967 15.35L11.9367 14.73C12.5267 14.34 13.2867 14.34 13.8667 14.73L14.7567 15.33C14.8667 15.4 14.9667 15.37 15.0167 15.34C15.0667 15.31 15.1467 15.25 15.1467 15.12V10.74H10.6067V10.75Z" fill="#0066FF"/>
</svg>
