<svg width="25" height="24" viewBox="0 0 25 24" fill="none" xmlns="http://www.w3.org/2000/svg">
<path d="M12.72 22.75C6.79997 22.75 1.96997 17.93 1.96997 12C1.96997 6.07 6.79997 1.25 12.72 1.25C18.64 1.25 23.47 6.07 23.47 12C23.47 17.93 18.65 22.75 12.72 22.75ZM12.72 2.75C7.61997 2.75 3.46997 6.9 3.46997 12C3.46997 17.1 7.61997 21.25 12.72 21.25C17.82 21.25 21.97 17.1 21.97 12C21.97 6.9 17.82 2.75 12.72 2.75Z" fill="#FF8C00"/>
<path d="M10.76 15.9498H9.46C8.54 15.9498 8 15.4198 8 14.5298V9.4698C8 8.5798 8.55 8.0498 9.46 8.0498H10.75C11.67 8.0498 12.21 8.5798 12.21 9.4698V14.5298C12.22 15.4198 11.67 15.9498 10.76 15.9498ZM9.5 14.4498H10.72V9.5498H9.51L9.5 14.4498Z" fill="#FF8C00"/>
<path d="M16.04 15.9498H14.75C13.83 15.9498 13.29 15.4198 13.29 14.5298V9.4698C13.29 8.5798 13.84 8.0498 14.75 8.0498H16.04C16.96 8.0498 17.5 8.5798 17.5 9.4698V14.5298C17.5 15.4198 16.95 15.9498 16.04 15.9498ZM14.78 14.4498H16V9.5498H14.79L14.78 14.4498Z" fill="#FF8C00"/>
</svg>
