<svg width="24" height="25" viewBox="0 0 24 25" fill="none" xmlns="http://www.w3.org/2000/svg">
<path d="M22 6.56055V8.98055C22 10.5605 21 11.5605 19.42 11.5605H16V4.57055C16 3.46055 16.91 2.56055 18.02 2.56055C19.11 2.57055 20.11 3.01055 20.83 3.73055C21.55 4.46055 22 5.46055 22 6.56055Z" stroke="#A0A0A0" stroke-width="1.5" stroke-miterlimit="10" stroke-linecap="round" stroke-linejoin="round"/>
<path d="M2 7.56055V21.5605C2 22.3905 2.93998 22.8605 3.59998 22.3605L5.31 21.0805C5.71 20.7805 6.27 20.8205 6.63 21.1805L8.28998 22.8505C8.67998 23.2405 9.32002 23.2405 9.71002 22.8505L11.39 21.1705C11.74 20.8205 12.3 20.7805 12.69 21.0805L14.4 22.3605C15.06 22.8505 16 22.3805 16 21.5605V4.56055C16 3.46055 16.9 2.56055 18 2.56055H7H6C3 2.56055 2 4.35055 2 6.56055V7.56055Z" stroke="#A0A0A0" stroke-width="1.5" stroke-miterlimit="10" stroke-linecap="round" stroke-linejoin="round"/>
<path d="M6 9.56055H12" stroke="#A0A0A0" stroke-width="1.5" stroke-linecap="round" stroke-linejoin="round"/>
<path d="M6.75 13.5605H11.25" stroke="#A0A0A0" stroke-width="1.5" stroke-linecap="round" stroke-linejoin="round"/>
</svg>
