<svg width="25" height="24" viewBox="0 0 25 24" fill="none" xmlns="http://www.w3.org/2000/svg">
<path d="M21.5834 6.73046C21.5634 6.73046 21.5334 6.73046 21.5034 6.73046C16.2134 6.20046 10.9334 6.00046 5.70341 6.53046L3.66341 6.73046C3.24341 6.77046 2.87341 6.47046 2.83341 6.05046C2.79341 5.63046 3.09341 5.27046 3.50341 5.23046L5.54341 5.03046C10.8634 4.49046 16.2534 4.70046 21.6534 5.23046C22.0634 5.27046 22.3634 5.64046 22.3234 6.05046C22.2934 6.44046 21.9634 6.73046 21.5834 6.73046Z" fill="#FF0000"/>
<path d="M9.08351 5.72C9.04351 5.72 9.00351 5.72 8.95351 5.71C8.55351 5.64 8.27351 5.25 8.34351 4.85L8.56351 3.54C8.72351 2.58 8.94351 1.25 11.2735 1.25H13.8935C16.2335 1.25 16.4535 2.63 16.6035 3.55L16.8235 4.85C16.8935 5.26 16.6135 5.65 16.2135 5.71C15.8035 5.78 15.4135 5.5 15.3535 5.1L15.1335 3.8C14.9935 2.93 14.9635 2.76 13.9035 2.76H11.2835C10.2235 2.76 10.2035 2.9 10.0535 3.79L9.82351 5.09C9.76351 5.46 9.44351 5.72 9.08351 5.72Z" fill="#FF0000"/>
<path d="M15.7934 22.7496H9.37339C5.88339 22.7496 5.74339 20.8196 5.63339 19.2596L4.98339 9.18959C4.95339 8.77959 5.27339 8.41959 5.68339 8.38959C6.10339 8.36959 6.45339 8.67959 6.48339 9.08959L7.13339 19.1596C7.24339 20.6796 7.28339 21.2496 9.37339 21.2496H15.7934C17.8934 21.2496 17.9334 20.6796 18.0334 19.1596L18.6834 9.08959C18.7134 8.67959 19.0734 8.36959 19.4834 8.38959C19.8934 8.41959 20.2134 8.76959 20.1834 9.18959L19.5334 19.2596C19.4234 20.8196 19.2834 22.7496 15.7934 22.7496Z" fill="#FF0000"/>
<path d="M14.2436 17.25H10.9136C10.5036 17.25 10.1636 16.91 10.1636 16.5C10.1636 16.09 10.5036 15.75 10.9136 15.75H14.2436C14.6536 15.75 14.9936 16.09 14.9936 16.5C14.9936 16.91 14.6536 17.25 14.2436 17.25Z" fill="#FF0000"/>
<path d="M15.0835 13.25H10.0835C9.6735 13.25 9.3335 12.91 9.3335 12.5C9.3335 12.09 9.6735 11.75 10.0835 11.75H15.0835C15.4935 11.75 15.8335 12.09 15.8335 12.5C15.8335 12.91 15.4935 13.25 15.0835 13.25Z" fill="#FF0000"/>
</svg>
