<svg width="25" height="24" viewBox="0 0 25 24" fill="none" xmlns="http://www.w3.org/2000/svg">
<path d="M15.5466 19.0596H7.54663C7.13663 19.0596 6.79663 18.7196 6.79663 18.3096C6.79663 17.8996 7.13663 17.5596 7.54663 17.5596H15.5466C17.8866 17.5596 19.7966 15.6496 19.7966 13.3096C19.7966 10.9696 17.8866 9.05957 15.5466 9.05957H4.54663C4.13663 9.05957 3.79663 8.71957 3.79663 8.30957C3.79663 7.89957 4.13663 7.55957 4.54663 7.55957H15.5466C18.7166 7.55957 21.2966 10.1396 21.2966 13.3096C21.2966 16.4796 18.7166 19.0596 15.5466 19.0596Z" fill="#0066FF"/>
<path d="M6.84681 11.5599C6.65681 11.5599 6.46681 11.4899 6.31681 11.3399L3.75681 8.77988C3.46681 8.48988 3.46681 8.00988 3.75681 7.71988L6.31681 5.15988C6.60681 4.86988 7.08681 4.86988 7.37681 5.15988C7.66681 5.44988 7.66681 5.92988 7.37681 6.21988L5.34681 8.24988L7.37681 10.2799C7.66681 10.5699 7.66681 11.0499 7.37681 11.3399C7.23681 11.4899 7.03681 11.5599 6.84681 11.5599Z" fill="#0066FF"/>
</svg>
